<svg id="Layer_1" data-name="Layer 1" xmlns="http://www.w3.org/2000/svg" viewBox="0 0 27.29 22.07"><defs><style>.cls-1{fill:#00a99d;}.cls-2{fill:#333;}.cls-3{fill:#fff;}</style></defs><circle class="cls-1" cx="11.74" cy="11.04" r="11.04"/><circle class="cls-2" cx="14.74" cy="11.04" r="11.04"/><path class="cls-3" d="M7186.42,7196.1v-.48h1.67v.66H7188Zm1.79,6.9,1.56.18v.48h-3.35v-.48l1.55-.18Zm-.66-3.66c0-1.23,0-2.48,0-3.72h1.15c0,1.22,0,2.46,0,3.72v.46c0,1.38,0,2.63,0,3.86h-1.15c0-1.21,0-2.46,0-3.72Zm3.87-3.72.54.6h-3.87v-.6h4.29l.08,2.14h-.67Zm-.52,4.21h-2.81v-.55h2.81Zm-.38-.43.18-1.27h.54v3h-.54l-.18-1.33Z" transform="translate(-7186.42 -7188.85)"/><path class="cls-3" d="M7200.61,7199.64c0,2.63-1.8,4.2-3.66,4.2s-3.67-1.46-3.67-4.2a3.88,3.88,0,0,1,3.67-4.19C7198.8,7195.45,7200.61,7196.91,7200.61,7199.64Zm-3.66,3.6c1.69,0,2.4-1.8,2.4-3.6s-.71-3.6-2.4-3.6-2.41,1.8-2.41,3.6S7195.26,7203.24,7197,7203.24Z" transform="translate(-7186.42 -7188.85)"/><path class="cls-3" d="M7201.43,7196.1v-.48h1.68v.66H7203Zm1.8,6.9,1.56.18v.48h-3.36v-.48l1.56-.18Zm-.66-3.66c0-1.23,0-2.48,0-3.72h1.15c0,1.22,0,2.46,0,3.72v.73c0,1.23,0,2.36,0,3.59h-1.15c0-1.21,0-2.46,0-3.72Zm1.72,1.14h-1.18v-.55h1.36c1.48,0,2.05-.78,2.05-1.92s-.64-1.83-2.09-1.83h-1.32v-.56h1.54c2,0,3,1,3,2.39S7206.74,7200.48,7204.29,7200.48Z" transform="translate(-7186.42 -7188.85)"/><path class="cls-3" d="M7212.73,7201.78c0-.78-.47-1.13-1.51-1.54l-.46-.18c-1.22-.48-2.06-1.17-2.06-2.4s1.16-2.21,2.69-2.21a3.18,3.18,0,0,1,1.95.63l-.07,1.56h-.72l-.34-1.81.77.39v.6a2.2,2.2,0,0,0-1.67-.78c-.93,0-1.64.47-1.64,1.37s.49,1.2,1.37,1.54l.47.18c1.58.61,2.19,1.3,2.19,2.43,0,1.42-1.19,2.28-2.83,2.28a4.68,4.68,0,0,1-2.33-.63l.08-1.68h.71l.32,1.84-.78-.33v-.58a2.9,2.9,0,0,0,2,.78C7212,7203.24,7212.73,7202.71,7212.73,7201.78Z" transform="translate(-7186.42 -7188.85)"/></svg>